<svg id="Capa_1" enable-background="new 0 0 512 512" height="512" viewBox="0 0 512 512" width="512" xmlns="http://www.w3.org/2000/svg"><path d="m30 211 28.501-30h56.25l36.249 30v255h-121v-60l31-15-31-15v-30l31-15-31-15v-30l31-15-31-15z" fill="#5b5555"/><g fill="#76e2f8"><path d="m91 271c0 8.291-6.709 15-15 15h-46v-30h46c8.291 0 15 6.709 15 15z"/><path d="m91 331c0 8.291-6.709 15-15 15h-46v-30h46c8.291 0 15 6.709 15 15z"/><path d="m91 391c0 8.291-6.709 15-15 15h-46v-30h46c8.291 0 15 6.709 15 15z"/><path d="m30 136h121v75h-121z"/></g><path d="m15 151h121c8.291 0 15-6.709 15-15s-6.709-15-15-15h-121c-8.291 0-15 6.709-15 15s6.709 15 15 15z" fill="#5b5555"/><path d="m482 211-27.501-30h-57.25l-36.249 30v255h121v-60l-30-15 30-15v-30l-30-15 30-15v-30l-30-15 30-15z" fill="#463f3f"/><path d="m421 271c0 8.291 6.709 15 15 15h46v-30h-46c-8.291 0-15 6.709-15 15z" fill="#3aaaff"/><path d="m421 331c0 8.291 6.709 15 15 15h46v-30h-46c-8.291 0-15 6.709-15 15z" fill="#3aaaff"/><path d="m421 391c0 8.291 6.709 15 15 15h46v-30h-46c-8.291 0-15 6.709-15 15z" fill="#3aaaff"/><path d="m361 136h121v75h-121z" fill="#3aaaff"/><path d="m497 151h-121c-8.291 0-15-6.709-15-15s6.709-15 15-15h121c8.291 0 15 6.709 15 15s-6.709 15-15 15z" fill="#463f3f"/><path d="m497 451h-241-241c-8.291 0-15 6.709-15 15v31c0 8.291 6.709 15 15 15h106l30-31h105 105l30 31h106c8.291 0 15-6.709 15-15v-31c0-8.291-6.709-15-15-15z" fill="#766e6e"/><path d="m391 512h106c8.291 0 15-6.709 15-15v-31c0-8.291-6.709-15-15-15h-241v30h105z" fill="#5b5555"/><path d="m256 15h-135v316l38.751 30h96.249 104.376l30.624-30v-316z" fill="#766e6e"/><path d="m391 331v-316h-135v346h104.376z" fill="#5b5555"/><path d="m316 91c-15.117 0-29.912-6.123-40.605-16.816l-8.789-8.789c-2.93-2.93-6.768-4.395-10.606-4.395s-7.676 1.465-10.605 4.395l-8.789 8.789c-10.694 10.693-25.489 16.816-40.606 16.816-8.291 0-15 6.709-15 15v22.91c0 47.095 26.162 89.443 68.291 110.508 2.109 1.055 4.409 1.582 6.709 1.582s4.6-.527 6.709-1.582c42.129-21.064 68.291-63.413 68.291-110.508v-22.91c0-8.291-6.709-15-15-15z" fill="#ffda2d"/><path d="m331 128.91v-22.91c0-8.291-6.709-15-15-15-15.117 0-29.912-6.123-40.605-16.816l-8.789-8.789c-2.93-2.93-6.768-4.395-10.606-4.395v180c2.3 0 4.6-.527 6.709-1.582 42.129-21.064 68.291-63.413 68.291-110.508z" fill="#fdbf00"/><path d="m406 0h-150-150c-8.291 0-15 6.709-15 15s6.709 15 15 15h150 150c8.291 0 15-6.709 15-15s-6.709-15-15-15z" fill="#a8ebfa"/><path d="m421 15c0-8.291-6.709-15-15-15h-150v30h150c8.291 0 15-6.709 15-15z" fill="#76e2f8"/><path d="m316 271h-60-60c-8.291 0-15 6.709-15 15s6.709 15 15 15h60 60c8.291 0 15-6.709 15-15s-6.709-15-15-15z" fill="#5b5555"/><path d="m331 286c0-8.291-6.709-15-15-15h-60v30h60c8.291 0 15-6.709 15-15z" fill="#463f3f"/><path d="m391 331v181h-30l-15-31-15 31h-30l-30-31h-30l-30 31h-30l-15-31-15 31h-30v-181z" fill="#f3eee9"/><path d="m391 331v181h-30l-15-31-15 31h-30l-30-31h-15v-150z" fill="#e9dfda"/><path d="m151 361h30v151h-30z" fill="#a8ebfa"/><path d="m331 361h30v151h-30z" fill="#76e2f8"/><path d="m256 361h-45v151h45 45v-151z" fill="#a8ebfa"/><path d="m256 361h45v151h-45z" fill="#76e2f8"/></svg>